<svg id="Layer_1" data-name="Layer 1" xmlns="http://www.w3.org/2000/svg" viewBox="0 0 418.27 420"><defs><style>.cls-1{fill:#fff;stroke:#000;stroke-miterlimit:10;}</style></defs><path d="M199,373.88a46.06,46.06,0,1,0,46.06,46.06A46.07,46.07,0,0,0,199,373.88Zm181.27,0a46.06,46.06,0,1,0,46.06,46.06h0A46.12,46.12,0,0,0,380.31,373.88Zm74.82-246.2H141.57l-6.8-40.05A49.88,49.88,0,0,0,85.47,46H56.87a10,10,0,0,0,0,20h28.6a29.93,29.93,0,0,1,29.58,25l36.21,213.31a49.87,49.87,0,0,0,49.3,41.64H413.73a10,10,0,0,0,0-20H200.55A29.92,29.92,0,0,1,171,301l-3.64-21.45h209a59.81,59.81,0,0,0,57.13-41.67l31.16-97.1a10,10,0,0,0-9.52-13Z" transform="translate(-46.87 -46)"/><path class="cls-1" d="M355.86,197.23v11a11,11,0,0,1-11,11H312v32.83a11,11,0,0,1-11,11H290a11,11,0,0,1-11-11V219.23H246.2a11,11,0,0,1-11-11v-11a11,11,0,0,1,11-11H279V153.4a11,11,0,0,1,11-11h11a11,11,0,0,1,11,11v32.83h32.83A11,11,0,0,1,355.86,197.23Z" transform="translate(-46.87 -46)"/></svg>