<?xml version="1.0" encoding="utf-8"?>
<!-- Generator: Adobe Illustrator 25.3.1, SVG Export Plug-In . SVG Version: 6.00 Build 0)  -->
<svg version="1.1" xmlns="http://www.w3.org/2000/svg" xmlns:xlink="http://www.w3.org/1999/xlink" x="0px" y="0px"
	 viewBox="0 0 512 512" style="enable-background:new 0 0 512 512;" xml:space="preserve">
<style type="text/css">
	.st0{fill:#EDFFD4;}
</style>
<g id="Layer_1">
	<path d="M199,373.9c-25.4,0-46.1,20.6-46.1,46.1S173.6,466,199,466c25.4,0,46.1-20.6,46.1-46.1C245.1,394.5,224.5,373.9,199,373.9z
		 M380.3,373.9c-25.4,0-46.1,20.6-46.1,46.1s20.6,46.1,46.1,46.1s46.1-20.6,46.1-46.1l0,0C426.3,394.5,405.7,373.9,380.3,373.9z
		 M455.1,127.7H141.6l-6.8-40c-4-24.1-24.9-41.7-49.3-41.6H56.9c-5.5,0-10,4.5-10,10s4.5,10,10,10h28.6c14.6,0,27.2,10.5,29.6,25
		l36.2,213.3c4,24.1,24.9,41.7,49.3,41.6h213.2c5.5,0,10-4.5,10-10s-4.5-10-10-10H200.6c-14.6,0-27.2-10.5-29.6-25l-3.6-21.4h209
		c26.1,0.1,49.2-16.8,57.1-41.7l31.2-97.1c1.7-5.3-1.2-10.9-6.5-12.6C457.2,127.8,456.2,127.7,455.1,127.7L455.1,127.7z"/>
</g>
<g id="Layer_2">
	<path class="st0" d="M289,256h-2c-9.9,0-18-8.1-18-18v-69c0-9.9,8.1-18,18-18h2c9.9,0,18,8.1,18,18v69C307,247.9,298.9,256,289,256
		z"/>
	<path class="st0" d="M340.5,202.5v2c0,9.9-8.1,18-18,18h-69c-9.9,0-18-8.1-18-18v-2c0-9.9,8.1-18,18-18h69
		C332.4,184.5,340.5,192.6,340.5,202.5z"/>
</g>
</svg>
