<svg xmlns="http://www.w3.org/2000/svg" width="24" height="24" viewBox="0 0 24 24"><path d="M 5.0722656 0 C 2.2623763 0 0 2.2623763 0 5.0722656 L 0 18.927734 C 0 21.737624 2.2623763 24 5.0722656 24 L 18.927734 24 C 21.737624 24 24 21.737624 24 18.927734 L 24 5.0722656 C 24 2.2623763 21.737624 0 18.927734 0 L 5.0722656 0 z M 6.5 10.5 L 9.5 10.5 L 9.5 13.5 L 6.5 13.5 L 6.5 11 L 6.5 10.5 z M 10.5 10.5 L 13.5 10.5 L 13.5 13.5 L 10.5 13.5 L 10.5 11 L 10.5 10.5 z M 14.5 10.5 L 17.5 10.5 L 17.5 13.5 L 14.5 13.5 L 14.5 11 L 14.5 10.5 z "/></svg>