<svg xmlns="http://www.w3.org/2000/svg" xmlns:xlink="http://www.w3.org/1999/xlink" version="1.1" x="0px" y="0px" viewBox="0 0 100 125" enable-background="new 0 0 100 100" xml:space="preserve"><path fill="none" stroke="#000000" stroke-width="3" stroke-linecap="round" stroke-miterlimit="10" d="M33.2,27.1h56.3  c0,0,0.1,0,0.1,0.1c0,0-8.3,27.6-9.3,30.6c-0.7,2.1-1.9,3.9-5.4,3.9c-3,0-41.3,0-41.3,0c0,0,0,0-0.1,0L21.9,16.3c0,0,0,0-0.1,0  l-9.4,0c-2.9,0-5.4,2.1-5.7,4.9c-0.3,3.2,2.2,5.9,5.4,5.9h12.5"/><circle fill="none" stroke="#000000" stroke-width="3" stroke-miterlimit="10" cx="26.2" cy="76.9" r="7"/><circle fill="none" stroke="#000000" stroke-width="3" stroke-miterlimit="10" cx="80" cy="76.9" r="7"/><line fill="none" stroke="#000000" stroke-width="3" stroke-miterlimit="10" x1="33.5" y1="61.7" x2="29.2" y2="69.9"/><line fill="none" stroke="#000000" stroke-width="3" stroke-miterlimit="10" x1="33.6" y1="76.9" x2="73" y2="76.9"/><text x="0" y="115" fill="#000000" font-size="5px" font-weight="bold" font-family="'Helvetica Neue', Helvetica, Arial-Unicode, Arial, Sans-serif">Created by Ian A Watts</text><text x="0" y="120" fill="#000000" font-size="5px" font-weight="bold" font-family="'Helvetica Neue', Helvetica, Arial-Unicode, Arial, Sans-serif">from the Noun Project</text></svg>